<?xml version="1.0" encoding="UTF-8"?>
<svg version="1.1" xmlns="http://www.w3.org/2000/svg" width="904" height="1280">
<path d="M0 0 C5.28 0 10.56 0 16 0 C16.33 15.84 16.66 31.68 17 48 C19.64 46.02 22.28 44.04 25 42 C35.2454296 36.24679722 46.28291834 35.77892371 57.61328125 38.3046875 C65.80190033 40.69024265 72.56866939 45.12347685 76.85710144 52.60220337 C81.1234515 61.55298883 80.28160939 72.23046144 80.23046875 81.9140625 C80.229274 83.42052165 80.22882441 84.92698156 80.2290802 86.43344116 C80.22752801 89.56488822 80.21932866 92.69621889 80.20581055 95.82763672 C80.18867475 99.8482907 80.18500106 103.86881915 80.18575573 107.88950539 C80.18548471 110.9880392 80.18001697 114.08654538 80.17275429 117.18507004 C80.16956815 118.6690996 80.16760034 120.15313228 80.16686058 121.63716507 C80.16470473 123.69778117 80.1559815 125.75826068 80.14526367 127.81884766 C80.14145187 128.99146149 80.13764008 130.16407532 80.13371277 131.3722229 C80 134 80 134 79 135 C76.48863896 135.09975032 74.01096585 135.13882183 71.5 135.125 C70.44619141 135.13080078 70.44619141 135.13080078 69.37109375 135.13671875 C64.12661378 135.12661378 64.12661378 135.12661378 63 134 C62.88688632 132.08449554 62.84316286 130.164862 62.82641602 128.24609375 C62.81292618 127.01391113 62.79943634 125.78172852 62.78553772 124.51220703 C62.78047777 123.84884338 62.77541782 123.18547974 62.77020454 122.50201416 C62.75380178 120.42426665 62.73055768 118.34670063 62.70530701 116.26904297 C62.6345596 110.35963013 62.57477734 104.45013764 62.52319336 98.54052734 C62.49117515 94.92770506 62.44982881 91.31508221 62.40299797 87.7024231 C62.38709486 86.33110189 62.37472012 84.95973466 62.36609077 83.58834839 C62.42012073 70.32316304 62.42012073 70.32316304 58 58 C55.9664052 56.73195434 55.9664052 56.73195434 54 56 C54 55.34 54 54.68 54 54 C45.2510532 51.9530766 35.99034443 51.65742151 28 56 C27.236875 56.12375 26.47375 56.2475 25.6875 56.375 C23.76280776 56.86926922 23.76280776 56.86926922 22.9375 59.125 C22.628125 60.07375 22.31875 61.0225 22 62 C21.505 63.010625 21.01 64.02125 20.5 65.0625 C16.68547269 73.99647914 16.69456667 84.17551546 16.62109375 93.73046875 C16.60409927 94.88750809 16.5871048 96.04454742 16.56959534 97.23664856 C16.51698466 100.88687879 16.47635202 104.53709951 16.4375 108.1875 C16.39356732 111.87712516 16.34700092 115.56666362 16.29469299 119.25617981 C16.26271848 121.54199112 16.23583387 123.82788027 16.21446228 126.11381531 C16.20097244 127.13610733 16.1874826 128.15839935 16.17358398 129.21166992 C16.16407211 130.11479416 16.15456024 131.0179184 16.14476013 131.94841003 C16 134 16 134 15 135 C12.46950598 135.07313567 9.96695163 135.09247527 7.4375 135.0625 C6.72658203 135.05798828 6.01566406 135.05347656 5.28320312 135.04882812 C3.52209987 135.03700864 1.76103964 135.01907263 0 135 C-1.17113738 128.51787558 -1.14085804 122.13679802 -1.12939453 115.56298828 C-1.13114685 114.32486893 -1.13289917 113.08674957 -1.13470459 111.81111145 C-1.13833954 108.43344567 -1.13750529 105.05584153 -1.1343255 101.67817926 C-1.13178626 98.14058508 -1.13414348 94.60299346 -1.13571167 91.06539917 C-1.13752737 85.13246184 -1.1351413 79.19953699 -1.13037109 73.26660156 C-1.12491456 66.40059926 -1.12670359 59.53462659 -1.1321975 52.668625 C-1.13672779 46.77127456 -1.13738005 40.87393307 -1.13475883 34.97658145 C-1.13319753 31.45493449 -1.1329986 27.9333015 -1.13629532 24.41165543 C-1.13970672 20.49463994 -1.13498579 16.57765804 -1.12939453 12.66064453 C-1.13141876 11.48769333 -1.13344299 10.31474213 -1.13552856 9.10624695 C-1.13270874 8.04639084 -1.12988892 6.98653473 -1.12698364 5.89456177 C-1.12660662 4.96803362 -1.12622959 4.04150547 -1.12584114 3.08690071 C-1 1 -1 1 0 0 Z " fill="#272626" transform="translate(418,518)"/>
<path d="M0 0 C0.77762695 -0.02771484 1.55525391 -0.05542969 2.35644531 -0.08398438 C7.73046869 0.00468818 10.56465004 1.54644478 14.4934082 5.17089844 C16.86752017 8.01297806 16.94918195 10.76702883 16.9375 14.3125 C16.94136719 15.49005859 16.94136719 15.49005859 16.9453125 16.69140625 C16.8125 18.75 16.8125 18.75 15.8125 20.75 C13.4375 20.875 13.4375 20.875 10.8125 20.75 C8.41486815 18.35236815 8.46969414 17.41726502 8.1875 14.125 C8.07535156 12.89910156 8.07535156 12.89910156 7.9609375 11.6484375 C7.91195312 11.02195312 7.86296875 10.39546875 7.8125 9.75 C-1.56387499 5.66286218 -11.04762606 9.49200666 -20.1875 12.75 C-29.27613242 16.41001684 -37.80865523 21.17903609 -46.25 26.125 C-49.1875 27.75 -49.1875 27.75 -51.1875 27.75 C-51.1875 28.41 -51.1875 29.07 -51.1875 29.75 C-53.48828125 31.44140625 -53.48828125 31.44140625 -56.5 33.3125 C-57.48613281 33.93253906 -58.47226563 34.55257812 -59.48828125 35.19140625 C-62.1875 36.75 -62.1875 36.75 -65.1875 37.75 C-65.5175 38.74 -65.8475 39.73 -66.1875 40.75 C-66.826875 40.894375 -67.46625 41.03875 -68.125 41.1875 C-68.805625 41.373125 -69.48625 41.55875 -70.1875 41.75 C-70.48914063 42.35972656 -70.79078125 42.96945312 -71.1015625 43.59765625 C-72.31350019 45.99973418 -73.52982804 47.09188542 -75.625 48.75 C-78.24947006 50.8953137 -80.18308324 53.00711391 -82.1875 55.75 C-82.8475 55.75 -83.5075 55.75 -84.1875 55.75 C-84.435 56.430625 -84.6825 57.11125 -84.9375 57.8125 C-85.91512812 60.10992608 -86.93251519 62.10996994 -88.1875 64.25 C-91.98126792 70.83247046 -93.29141709 76.13361943 -91.5 83.625 C-89.80733604 86.36550355 -88.2250486 86.87070962 -85.1875 87.75 C-85.1875 88.41 -85.1875 89.07 -85.1875 89.75 C-84.64150146 89.84941895 -84.09550293 89.94883789 -83.53295898 90.05126953 C-77.69726329 91.21629045 -72.62354806 93.10311404 -67.25 95.625 C-65.65949953 96.35297416 -64.06835919 97.07955204 -62.4765625 97.8046875 C-61.72793945 98.14725586 -60.97931641 98.48982422 -60.20800781 98.84277344 C-57.87475883 99.89042366 -55.5145196 100.83853376 -53.125 101.75 C-29.78849679 110.93091201 -29.78849679 110.93091201 -21.1875 118.75 C-21.1875 119.41 -21.1875 120.07 -21.1875 120.75 C-20.548125 121.018125 -19.90875 121.28625 -19.25 121.5625 C-17.1875 122.75 -17.1875 122.75 -16.1875 125.75 C-13.55848712 124.22793991 -11.34384036 122.90634036 -9.1875 120.75 C-8.1975 120.75 -7.2075 120.75 -6.1875 120.75 C-5.96835937 120.1621875 -5.74921875 119.574375 -5.5234375 118.96875 C-3.76132761 116.04220492 -1.74187002 114.97777856 1.1875 113.25 C4.13718437 111.50086102 6.57762886 109.99080651 8.9765625 107.53125 C10.8125 105.75 10.8125 105.75 13.8125 105.75 C13.8125 105.09 13.8125 104.43 13.8125 103.75 C17.18884743 100.9098467 20.33647534 98.65774846 24.8125 98.9375 C25.4725 99.205625 26.1325 99.47375 26.8125 99.75 C27.1425 100.74 27.4725 101.73 27.8125 102.75 C23.84086618 107.13249249 19.28472076 110.39289023 14.47265625 113.8125 C12.31782937 115.38194806 10.30848372 116.98913216 8.3125 118.75 C5.8125 120.75 5.8125 120.75 2.8125 120.75 C2.8125 121.41 2.8125 122.07 2.8125 122.75 C1.29670932 123.65230655 -0.22262655 124.54924875 -1.76025391 125.41381836 C-7.96021298 128.987506 -7.96021298 128.987506 -11.16796875 135.10546875 C-11.26493162 137.50857549 -11.28740668 139.91575215 -11.23828125 142.3203125 C-11.06633171 153.93352013 -18.20154477 165.24384887 -24.1875 174.75 C-24.868125 175.843125 -25.54875 176.93625 -26.25 178.0625 C-28.32836264 180.94539012 -30.64580875 183.27185103 -33.1875 185.75 C-34.09435547 186.925625 -34.09435547 186.925625 -35.01953125 188.125 C-44.33418465 199.40328303 -61.24855473 211.28744592 -76.1875 212.75 C-80.57174904 212.80657096 -83.97075247 212.49191923 -87.75 210.1875 C-89.86018358 206.60936262 -90.06074054 203.71265974 -89.1875 199.75 C-86.32635925 193.01848049 -82.25605445 186.07808886 -77.1875 180.75 C-76.5275 180.75 -75.8675 180.75 -75.1875 180.75 C-75.001875 180.04875 -74.81625 179.3475 -74.625 178.625 C-72.93863437 175.25226873 -71.02535213 173.75778171 -68.125 171.4375 C-65.36183601 169.0308733 -63.14439686 166.24491851 -60.86328125 163.38671875 C-59.1875 161.75 -59.1875 161.75 -57.10546875 161.26953125 C-56.47253906 161.09808594 -55.83960938 160.92664063 -55.1875 160.75 C-54.91164062 160.19054687 -54.63578125 159.63109375 -54.3515625 159.0546875 C-52.55629685 155.50030248 -49.5915514 153.39401984 -46.5625 150.875 C-45.93239014 150.34269775 -45.30228027 149.81039551 -44.65307617 149.26196289 C-40.7818562 146.01280552 -36.85757825 142.86551024 -32.73828125 139.93359375 C-31.06730035 138.65826072 -29.66123311 137.24688075 -28.1875 135.75 C-26.21590903 134.0470443 -24.20015478 132.40484949 -22.1875 130.75 C-35.34690637 113.32267804 -61.40227618 106.39839072 -81.109375 98.99609375 C-88.47150462 96.01573925 -94.30285268 92.56517871 -99.125 86.1875 C-101.30664871 79.12922476 -101.4504908 70.57272079 -98.328125 63.74609375 C-91.07364156 51.05074772 -79.84806649 39.53718907 -68.1875 30.75 C-67.1975 30.75 -66.2075 30.75 -65.1875 30.75 C-64.6925 29.265 -64.6925 29.265 -64.1875 27.75 C-58.77240917 23.14828701 -52.48057451 19.64053283 -46.2109375 16.34765625 C-44.0499326 15.20572989 -41.91134129 14.020976 -39.7890625 12.80859375 C-27.25940723 5.6945999 -14.58788026 0.30759295 0 0 Z M-19.1875 138.75 C-21.08410274 140.16564607 -22.97979517 141.58248455 -24.875 143 C-26.45861328 144.18335938 -26.45861328 144.18335938 -28.07421875 145.390625 C-31.97383627 148.34591858 -35.76871274 151.24478272 -39.1875 154.75 C-40.26362293 155.69576783 -41.34783939 156.63236178 -42.4375 157.5625 C-66.58583913 176.63527951 -66.58583913 176.63527951 -81.125 201.875 C-81.145625 202.82375 -81.16625 203.7725 -81.1875 204.75 C-76.76599239 206.34592878 -74.12231724 205.18575214 -70.06054688 203.34960938 C-69.33931641 203.00736328 -68.61808594 202.66511719 -67.875 202.3125 C-67.13443359 201.97412109 -66.39386719 201.63574219 -65.63085938 201.28710938 C-63.81085123 200.45342822 -61.99838847 199.60330937 -60.1875 198.75 C-60.1875 198.09 -60.1875 197.43 -60.1875 196.75 C-57.7125 196.255 -57.7125 196.255 -55.1875 195.75 C-55.1875 195.09 -55.1875 194.43 -55.1875 193.75 C-54.465625 193.5025 -53.74375 193.255 -53 193 C-49.91143418 191.62730408 -47.67738582 190.02646704 -45.1875 187.75 C-45.1875 187.09 -45.1875 186.43 -45.1875 185.75 C-44.548125 185.481875 -43.90875 185.21375 -43.25 184.9375 C-40.85618314 183.86332248 -40.85618314 183.86332248 -40.1875 180.75 C-39.1975 180.42 -38.2075 180.09 -37.1875 179.75 C-35.42145836 177.63821033 -35.42145836 177.63821033 -33.75 175.0625 C-33.13511719 174.14984375 -32.52023437 173.2371875 -31.88671875 172.296875 C-31.32597656 171.45640625 -30.76523437 170.6159375 -30.1875 169.75 C-29.135625 168.2959375 -29.135625 168.2959375 -28.0625 166.8125 C-23.38746215 159.17660485 -19.65697795 150.62684639 -18.1875 141.75 C-18.6825 140.265 -18.6825 140.265 -19.1875 138.75 Z " fill="#272525" transform="translate(301.1875,464.25)"/>
<path d="M0 0 C0.00496522 0.8856879 0.00496522 0.8856879 0.01003075 1.78926849 C0.09137296 16.17928339 0.18350189 30.56919963 0.28752708 44.9590683 C0.33757551 51.91800251 0.38401906 58.8769254 0.421875 65.8359375 C0.45842681 72.55333025 0.50515833 79.27058213 0.55806351 85.98786926 C0.57657806 88.54903456 0.59169683 91.11022676 0.60334396 93.6714325 C0.62025639 97.2622053 0.64930434 100.85269223 0.68115234 104.44335938 C0.68331253 105.49928284 0.68547272 106.5552063 0.68769836 107.64312744 C0.75319919 113.43449975 1.33894702 118.44484714 3 124 C3.66 124 4.32 124 5 124 C4.505 125.98 4.505 125.98 4 128 C1.18743719 128.02684312 -1.62487241 128.04676188 -4.4375 128.0625 C-5.23994141 128.07087891 -6.04238281 128.07925781 -6.86914062 128.08789062 C-8.91295221 128.0965143 -10.95683902 128.0522815 -13 128 C-14.83219646 126.16780354 -14.23901328 123.24286259 -14.31640625 120.77734375 C-14.35830078 119.51728516 -14.40019531 118.25722656 -14.44335938 116.95898438 C-14.48317596 115.61849264 -14.52288814 114.2779978 -14.5625 112.9375 C-14.60568042 111.59308477 -14.64929456 110.2486834 -14.69335938 108.90429688 C-14.79985358 105.6029766 -14.9018646 102.30157764 -15 99 C-15.65355469 100.39412109 -15.65355469 100.39412109 -16.3203125 101.81640625 C-19.55684405 108.58561061 -22.56379709 114.69022041 -28 120 C-28.66 120 -29.32 120 -30 120 C-30.37511719 120.92232422 -30.37511719 120.92232422 -30.7578125 121.86328125 C-32.21428336 124.36859433 -33.27589622 124.9860275 -35.875 126.1875 C-36.55304688 126.51105469 -37.23109375 126.83460938 -37.9296875 127.16796875 C-46.96587393 130.79949273 -57.2566584 129.75640998 -66.20703125 126.38671875 C-74.11704732 122.45936812 -79.71307647 116.17328752 -83 108 C-86.82798612 93.93154147 -83.78444837 78.53046076 -77 66 C-69.14431081 53.07382052 -58.40409882 44.18787383 -43.62890625 40.390625 C-40.18754258 39.87927824 -36.78397961 39.77647458 -33.3125 39.75 C-32.65572266 39.729375 -31.99894531 39.70875 -31.32226562 39.6875 C-25.51476177 39.64261108 -20.46837676 41.13189036 -15 43 C-14.92570975 38.65840162 -14.87133259 34.3171423 -14.83520508 29.97509766 C-14.82014077 28.49879509 -14.79968518 27.02253712 -14.77368164 25.54638672 C-14.73719261 23.42143742 -14.72025067 21.29708099 -14.70703125 19.171875 C-14.6913208 17.8940918 -14.67561035 16.61630859 -14.65942383 15.29980469 C-15.02610042 11.74711595 -15.81261179 10.68070766 -18 8 C-17.67 7.01 -17.34 6.02 -17 5 C-14.19921875 3.61328125 -14.19921875 3.61328125 -10.6875 2.3125 C-9.53636719 1.87550781 -8.38523437 1.43851563 -7.19921875 0.98828125 C-4 0 -4 0 0 0 Z M-40.5 44.0625 C-49.11817183 46.37093888 -55.44387153 52.54715043 -60 60 C-63.27725591 66.20005151 -64.94180956 72.19879623 -65.875 79.125 C-66.00084473 80.03717285 -66.12668945 80.9493457 -66.25634766 81.88916016 C-67.76218412 94.30849736 -66.4245498 105.73097529 -59.25 116.1875 C-55.77575324 120.5836599 -52.52591565 123.26246902 -46.87109375 124.4453125 C-41.30294233 124.89076461 -37.56303666 123.2526858 -33.1328125 119.95703125 C-21.25332809 109.05662522 -14.91786017 90.46274638 -14.1015625 74.6953125 C-14.06804687 73.47585938 -14.03453125 72.25640625 -14 71 C-13.94537598 69.65566895 -13.94537598 69.65566895 -13.88964844 68.28417969 C-13.77063152 65.16873676 -13.69318242 62.05444499 -13.625 58.9375 C-13.58665039 57.91277588 -13.54830078 56.88805176 -13.50878906 55.83227539 C-13.47909644 53.13272122 -13.50201362 50.65367754 -14 48 C-20.43361101 41.99383503 -32.28326264 43.91577255 -40.5 44.0625 Z " fill="#282827" transform="translate(398,525)"/>
<path d="M0 0 C3.34139976 0.02999461 4.22721051 0.29795352 7.1875 2.1875 C10.59325286 5.6964575 10.58097275 8.33068439 10.54296875 13.05078125 C10.11344199 16.3667278 8.64075646 18.06237627 6.25 20.3125 C2.75525261 22.0598737 -0.93678856 21.86475821 -4.75 21.3125 C-7.8125 19.4375 -7.8125 19.4375 -9.75 16.3125 C-10.43920538 12.83799354 -10.48489356 9.78188123 -9.75 6.3125 C-7.3125 3.25 -7.3125 3.25 -4.75 1.3125 C-3.75 0.3125 -3.75 0.3125 0 0 Z " fill="#292828" transform="translate(456.75,661.6875)"/>
<path d="M0 0 C0.6640625 1.6953125 0.6640625 1.6953125 1 4 C-1.58069079 9.87931811 -5.59413674 15.34936656 -10 20 C-10.66 20 -11.32 20 -12 20 C-12.25007813 20.61488281 -12.50015625 21.22976563 -12.7578125 21.86328125 C-14.21428336 24.36859433 -15.27589622 24.9860275 -17.875 26.1875 C-18.89207031 26.67283203 -18.89207031 26.67283203 -19.9296875 27.16796875 C-24.14079487 28.86035718 -27.70353964 29.11191805 -32.25 29.0625 C-33.32765625 29.05347656 -34.4053125 29.04445313 -35.515625 29.03515625 C-36.33546875 29.02355469 -37.1553125 29.01195312 -38 29 C-38 28.67 -38 28.34 -38 28 C-31.07 27.01 -31.07 27.01 -24 26 C-26.64 25.67 -29.28 25.34 -32 25 C-32 24.67 -32 24.34 -32 24 C-31.38253906 23.99742187 -30.76507813 23.99484375 -30.12890625 23.9921875 C-23.05221565 23.66905094 -18.16528483 21.93571661 -13 17 C-9.44278704 12.30230655 -6.57200444 7.29311058 -4 2 C-3.01 2 -2.02 2 -1 2 C-0.67 1.34 -0.34 0.68 0 0 Z " fill="#42413D" transform="translate(380,625)"/>
<path d="M0 0 C0.33 0 0.66 0 1 0 C1 19.47 1 38.94 1 59 C3.31 59.33 5.62 59.66 8 60 C8 60.33 8 60.66 8 61 C1.84765625 61.87890625 1.84765625 61.87890625 0 62 C-1.71173651 60.28826349 -1.12753179 58.0549014 -1.12939453 55.7175293 C-1.13254669 54.58933273 -1.13569885 53.46113617 -1.13894653 52.29875183 C-1.1369223 51.06965591 -1.13489807 49.84056 -1.1328125 48.57421875 C-1.13376923 47.31994583 -1.13472595 46.06567291 -1.13571167 44.77339172 C-1.1363939 42.11264641 -1.13503464 39.45199214 -1.13037109 36.79125977 C-1.12469117 33.38492743 -1.12794162 29.97867418 -1.13394356 26.57234478 C-1.13843466 23.32296664 -1.13528538 20.07359793 -1.1328125 16.82421875 C-1.13483673 15.60119553 -1.13686096 14.3781723 -1.13894653 13.11808777 C-1.13579437 11.98043472 -1.13264221 10.84278168 -1.12939453 9.6706543 C-1.12820114 8.16960396 -1.12820114 8.16960396 -1.12698364 6.63822937 C-1.01283803 4.26672471 -0.67751305 2.26646799 0 0 Z " fill="#1F1F1F" transform="translate(482,591)"/>
<path d="M0 0 C5.29911179 0.5887902 7.92867537 4.74501972 11.1875 8.5625 C15.97250096 17.63750183 15.22926706 28.52901265 14.9765625 38.515625 C14.95031396 39.86609071 14.9250539 41.21657596 14.90072632 42.56707764 C14.83487065 46.07872751 14.75581769 49.58995353 14.67376709 53.10125732 C14.59205825 56.70145714 14.523173 60.30190152 14.453125 63.90234375 C14.31444966 70.93518216 14.1617945 77.96765227 14 85 C13.67 85 13.34 85 13 85 C12.99635437 84.23959915 12.99270874 83.4791983 12.98895264 82.695755 C12.95083601 75.47390018 12.89372026 68.25254784 12.81609726 61.03101826 C12.77685298 57.31973505 12.7445533 53.60868092 12.72900391 49.8972168 C12.71368303 46.30479657 12.67897246 42.71300716 12.63169098 39.12087059 C12.60997831 37.10674582 12.60753962 35.09244221 12.60565186 33.07820129 C12.44060987 22.52946417 11.32441522 12.10230084 4 4 C1.88339573 2.68834743 1.88339573 2.68834743 0 2 C0 1.34 0 0.68 0 0 Z " fill="#1C1B1A" transform="translate(483,561)"/>
<path d="M0 0 C0.33 0 0.66 0 1 0 C1 13.86 1 27.72 1 42 C0.67 42 0.34 42 0 42 C0 30.45 0 18.9 0 7 C-0.99 7 -1.98 7 -3 7 C-2.896875 8.216875 -2.79375 9.43375 -2.6875 10.6875 C-2.65408479 14.45005227 -2.90669702 14.88803642 -5.5 18 C-6.325 18.66 -7.15 19.32 -8 20 C-9.56393356 16.02623171 -8.36145292 13.18622097 -7.0625 9.25 C-6.68222656 8.07953125 -6.30195313 6.9090625 -5.91015625 5.703125 C-5.60980469 4.81109375 -5.30945313 3.9190625 -5 3 C-4.34 3 -3.68 3 -3 3 C-2.67 2.34 -2.34 1.68 -2 1 C-1.67 1.33 -1.34 1.66 -1 2 C-0.67 1.34 -0.34 0.68 0 0 Z " fill="#1F1E1C" transform="translate(386,609)"/>
<path d="M0 0 C2.76934385 2.76934385 2.26478583 4.56728704 2.375 8.4375 C2.91952524 17.44523951 4.82429826 25.74022881 11.140625 32.49609375 C14.70228072 35.3768447 18.81198853 37.20395556 23 39 C22.01 39.66 21.02 40.32 20 41 C11.75808605 37.6149282 6.61626032 32.3885657 2.0625 24.75 C-0.07837905 19.20890129 -0.12634425 14.0464378 -0.0625 8.1875 C-0.05573242 7.00510742 -0.05573242 7.00510742 -0.04882812 5.79882812 C-0.03711312 3.86585239 -0.01917998 1.93291607 0 0 Z " fill="#171616" transform="translate(314,611)"/>
<path d="M0 0 C0 0.33 0 0.66 0 1 C-1.093125 1.309375 -2.18625 1.61875 -3.3125 1.9375 C-5.55407994 2.58337897 -7.7869351 3.2623117 -10 4 C-10.20776602 8.08606506 -10.29550012 11.11349964 -9 15 C-6.72818908 17.27181092 -6.09540828 17.38610725 -3 17.5625 C-0.30486595 17.36432838 0.77144982 17.16427044 3 15.5625 C4.4941922 11.73363249 4.23421553 8.05973579 4 4 C6.16345727 6.34374538 6.96214706 7.74584457 7.4375 10.9375 C6.89919863 14.70560958 5.62436976 16.29844289 3 19 C-0.49474739 20.7473737 -4.18678856 20.55225821 -8 20 C-11.0625 18.125 -11.0625 18.125 -13 15 C-13.73705863 10.57049231 -14.02002653 6.62698446 -11.58203125 2.73828125 C-8.40792833 -0.74931332 -4.4648899 -0.10147477 0 0 Z " fill="#1E1D1C" transform="translate(460,663)"/>
<path d="M0 0 C0.99 0.33 1.98 0.66 3 1 C2.67 1.99 2.34 2.98 2 4 C2 4.99 2 5.98 2 7 C0.66666667 8.33333333 -0.66666667 9.66666667 -2 11 C-2.6837613 13.88717605 -2.6837613 13.88717605 -3.125 17.125 C-3.29257813 18.22070312 -3.46015625 19.31640625 -3.6328125 20.4453125 C-3.81457031 21.70988281 -3.81457031 21.70988281 -4 23 C-4.99 23.33 -5.98 23.66 -7 24 C-7.02715383 22.25008666 -7.04646551 20.50005055 -7.0625 18.75 C-7.07410156 17.77546875 -7.08570313 16.8009375 -7.09765625 15.796875 C-7.01195577 13.34241322 -6.70706066 11.33831086 -6 9 C-6.66 8.67 -7.32 8.34 -8 8 C-6.25 5 -6.25 5 -4 2 C-2.68 2 -1.36 2 0 2 C0 1.34 0 0.68 0 0 Z " fill="#2B2929" transform="translate(210,522)"/>
<path d="M0 0 C4.74018901 1.83491188 9.36413251 3.91941459 14 6 C14 5.01 14 4.02 14 3 C13.34 2.67 12.68 2.34 12 2 C12.721875 2.144375 13.44375 2.28875 14.1875 2.4375 C15.5796875 2.7159375 15.5796875 2.7159375 17 3 C18.66666667 3.33333333 20.33333333 3.66666667 22 4 C22 4.66 22 5.32 22 6 C21.01 6.495 21.01 6.495 20 7 C20.33 7.99 20.66 8.98 21 10 C23.31 10 25.62 10 28 10 C28 10.99 28 11.98 28 13 C19.11224679 11.25158953 9.77699447 8.78584275 2 4 C0.625 1.8125 0.625 1.8125 0 0 Z M28 8 C29.485 8.99 29.485 8.99 31 10 C30.01 10 29.02 10 28 10 C28 9.34 28 8.68 28 8 Z " fill="#242221" transform="translate(209,555)"/>
<path d="M0 0 C0.33 0.99 0.66 1.98 1 3 C-2.96238337 9.84713109 -11.04617954 15.52308977 -18 19 C-18.66 18.67 -19.32 18.34 -20 18 C-19.67 17.34 -19.34 16.68 -19 16 C-18.34 16 -17.68 16 -17 16 C-16.896875 15.29875 -16.79375 14.5975 -16.6875 13.875 C-15.90640997 10.60862353 -14.57941257 7.9528148 -13 5 C-12.01 5.66 -11.02 6.32 -10 7 C-10 7.66 -10 8.32 -10 9 C-6.7 6.03 -3.4 3.06 0 0 Z " fill="#22201F" transform="translate(269,645)"/>
<path d="M0 0 C0.12375 0.53625 0.2475 1.0725 0.375 1.625 C1.13023326 4.4948864 1.89640484 7.2410121 3 10 C3.99 10.33 4.98 10.66 6 11 C6.33 10.01 6.66 9.02 7 8 C8.98 7.67 10.96 7.34 13 7 C12.34 8.32 11.68 9.64 11 11 C14.3 10.34 17.6 9.68 21 9 C20.67 9.99 20.34 10.98 20 12 C14.42866018 14.43746117 7.81527931 14.60501709 2 13 C-0.5625 11.25 -0.5625 11.25 -2 9 C-2.54282688 5.38115411 -1.84753138 3.11770921 0 0 Z " fill="#232223" transform="translate(214,663)"/>
<path d="M0 0 C4.33459385 1.57621594 8.14493252 3.47937896 12 6 C12.9375 8.25 12.9375 8.25 13 10 C13.66 10 14.32 10 15 10 C15.80172639 14.40949513 16 18.52015926 16 23 C14.68 22.67 13.36 22.34 12 22 C11.91064799 18.78332751 12.15937603 16.09773244 13 13 C11.60886005 11.72403068 10.21185587 10.45445352 8.8125 9.1875 C8.03519531 8.47980469 7.25789063 7.77210938 6.45703125 7.04296875 C4.08015085 5.06664371 1.68921134 3.51417406 -1 2 C-0.67 1.34 -0.34 0.68 0 0 Z M13 2 C13.66 3.32 14.32 4.64 15 6 C14.34 6 13.68 6 13 6 C13 5.34 13 4.68 13 4 C12.34 3.67 11.68 3.34 11 3 C11.66 2.67 12.32 2.34 13 2 Z " fill="#1E1D1D" transform="translate(266,581)"/>
<path d="M0 0 C2.81499872 0.39097204 4.61085262 0.68340552 6.84375 2.5 C9.42986631 4.29903743 11.13215947 4.48237891 14.25 4.6875 C15.14203125 4.75324219 16.0340625 4.81898438 16.953125 4.88671875 C17.62859375 4.92410156 18.3040625 4.96148438 19 5 C15.46939899 7.35373401 12.41404244 7.65778415 8.3125 8.125 C7.61060547 8.21136719 6.90871094 8.29773438 6.18554688 8.38671875 C4.45788855 8.59826875 2.7290434 8.800086 1 9 C0.34 8.01 -0.32 7.02 -1 6 C-0.34 6 0.32 6 1 6 C0.67 4.02 0.34 2.04 0 0 Z " fill="#211F1E" transform="translate(340,645)"/>
<path d="M0 0 C1.89135742 0.30664062 1.89135742 0.30664062 4 1 C8.11212601 8.31866023 7.33956105 16.35564833 7.1875 24.5 C7.17242613 25.90883986 7.1587425 27.31769532 7.14648438 28.7265625 C7.11129724 32.15144396 7.06206079 35.57551763 7 39 C5 37 5 37 4.78881836 34.86108398 C4.81407593 33.56666382 4.81407593 33.56666382 4.83984375 32.24609375 C4.85080078 31.30958984 4.86175781 30.37308594 4.87304688 29.40820312 C4.89431641 28.42787109 4.91558594 27.44753906 4.9375 26.4375 C4.9717801 24.49876968 5.00195541 22.5599609 5.02734375 20.62109375 C5.04531006 19.7592749 5.06327637 18.89745605 5.08178711 18.00952148 C5.22743535 16.00151316 5.22743535 16.00151316 4 15 C3.84289112 13.56565414 3.72395279 12.12702756 3.625 10.6875 C3.25880205 6.90545556 2.6266613 4.85506664 0 2 C0 1.34 0 0.68 0 0 Z " fill="#1E1D1B" transform="translate(380,531)"/>
<path d="M0 0 C0.99 0.33 1.98 0.66 3 1 C2.01 2.485 2.01 2.485 1 4 C0.34 4 -0.32 4 -1 4 C-1.268125 4.763125 -1.53625 5.52625 -1.8125 6.3125 C-2.95134505 8.88988618 -3.81416671 10.26954864 -6 12 C-6.66 12 -7.32 12 -8 12 C-8.2475 12.53625 -8.495 13.0725 -8.75 13.625 C-10.29696975 16.56424252 -12.13014369 19.25754408 -14 22 C-14.67578125 20.265625 -14.67578125 20.265625 -15 18 C-13.85546875 15.859375 -13.85546875 15.859375 -12.1875 13.75 C-11.64480469 13.04359375 -11.10210937 12.3371875 -10.54296875 11.609375 C-10.03378906 11.07828125 -9.52460938 10.5471875 -9 10 C-8.34 10 -7.68 10 -7 10 C-6.773125 9.278125 -6.54625 8.55625 -6.3125 7.8125 C-4.75168987 4.46790687 -2.6968713 2.48396041 0 0 Z " fill="#201D1D" transform="translate(233,635)"/>
<path d="M0 0 C0.66 0.33 1.32 0.66 2 1 C1.34 1.66 0.68 2.32 0 3 C0.66 3.66 1.32 4.32 2 5 C1.34 5.598125 0.68 6.19625 0 6.8125 C-2.3373846 8.87501834 -2.3373846 8.87501834 -2 12 C-4.5 13.6875 -4.5 13.6875 -7 15 C-7.93423645 11.98968256 -8.04449911 11.13349732 -7 8 C-7.66 7.67 -8.32 7.34 -9 7 C-8.34 6.34 -7.68 5.68 -7 5 C-6.01 5 -5.02 5 -4 5 C-3.566875 4.0409375 -3.566875 4.0409375 -3.125 3.0625 C-2 1 -2 1 0 0 Z " fill="#2D2B2A" transform="translate(299,580)"/>
<path d="M0 0 C0.33 0 0.66 0 1 0 C1.33 15.18 1.66 30.36 2 46 C2.66 46 3.32 46 4 46 C3.67 47.32 3.34 48.64 3 50 C1 49 1 49 0 48 C-0.09311889 46.49581261 -0.11746028 44.98728644 -0.11352539 43.48022461 C-0.11344986 42.51930405 -0.11337433 41.55838348 -0.11329651 40.56834412 C-0.10813522 39.523564 -0.10297394 38.47878387 -0.09765625 37.40234375 C-0.0962413 36.33834854 -0.09482635 35.27435333 -0.09336853 34.17811584 C-0.08775064 30.76454917 -0.07519511 27.351047 -0.0625 23.9375 C-0.05748731 21.62955824 -0.052924 19.32161545 -0.04882812 17.01367188 C-0.0377754 11.34242574 -0.02101987 5.67121747 0 0 Z " fill="#161413" transform="translate(432,522)"/>
<path d="M0 0 C0 3.32788446 -0.41215235 3.88715636 -2.25 6.5 C-4.94474283 10.62226949 -6.54304073 14.83033408 -8.10546875 19.484375 C-8.91880354 21.77165713 -9.86406494 23.85823698 -11 26 C-11.74348368 16.92949915 -8.99959713 10.28513875 -3.8125 2.875 C-2 1 -2 1 0 0 Z " fill="#191917" transform="translate(327,585)"/>
<path d="M0 0 C-0.33 0.99 -0.66 1.98 -1 3 C-0.34 2.67 0.32 2.34 1 2 C3.55157655 1.9283265 6.07472971 1.90691558 8.625 1.9375 C9.68460937 1.94426758 9.68460937 1.94426758 10.765625 1.95117188 C12.51045275 1.96296125 14.255237 1.98089676 16 2 C16 2.33 16 2.66 16 3 C12.58444097 3.36544156 9.1674656 3.71537866 5.75 4.0625 C4.78191406 4.16626953 3.81382812 4.27003906 2.81640625 4.37695312 C1.88183594 4.47041016 0.94726562 4.56386719 -0.015625 4.66015625 C-0.87446289 4.74918213 -1.73330078 4.83820801 -2.61816406 4.92993164 C-6.07475233 5.03161684 -8.73835561 4.0872148 -12 3 C-4.71428571 -0.42857143 -4.71428571 -0.42857143 0 0 Z " fill="#403E3A" transform="translate(357,566)"/>
<path d="M0 0 C2.16345727 2.34374538 2.96214706 3.74584457 3.4375 6.9375 C2.89919863 10.70560958 1.62436976 12.29844289 -1 15 C-3.40545638 16.20272819 -4.94996953 16.10071472 -7.625 16.0625 C-8.85089844 16.04896484 -8.85089844 16.04896484 -10.1015625 16.03515625 C-10.72804688 16.02355469 -11.35453125 16.01195312 -12 16 C-11.67 15.01 -11.34 14.02 -11 13 C-9.741875 13.0825 -8.48375 13.165 -7.1875 13.25 C-3.84954426 13.23412371 -3.84954426 13.23412371 -1 11.5625 C0.4941922 7.73363249 0.23421553 4.05973579 0 0 Z " fill="#151414" transform="translate(464,667)"/>
<path d="M0 0 C0.68359375 1.671875 0.68359375 1.671875 1 4 C-0.21484375 6.578125 -0.21484375 6.578125 -1.9375 9.25 C-2.50339844 10.14203125 -3.06929688 11.0340625 -3.65234375 11.953125 C-4.09707031 12.62859375 -4.54179687 13.3040625 -5 14 C-5.99 13.67 -6.98 13.34 -8 13 C-7.52269162 11.5410574 -7.04308958 10.08286504 -6.5625 8.625 C-6.29566406 7.81289063 -6.02882813 7.00078125 -5.75390625 6.1640625 C-5 4 -5 4 -4 2 C-3.01 2 -2.02 2 -1 2 C-0.67 1.34 -0.34 0.68 0 0 Z " fill="#353431" transform="translate(380,625)"/>
<path d="M0 0 C0 0.99 0 1.98 0 3 C1.32 2.01 2.64 1.02 4 0 C4.66 0.99 5.32 1.98 6 3 C6.66 3.33 7.32 3.66 8 4 C7.01 4.33 6.02 4.66 5 5 C4.67 5.99 4.34 6.98 4 8 C3.01 7.67 2.02 7.34 1 7 C-1.16715557 7.87483915 -1.16715557 7.87483915 -3 9 C-3.75 6.75 -3.75 6.75 -4 4 C-2.0625 1.6875 -2.0625 1.6875 0 0 Z " fill="#2C2B2B" transform="translate(255,615)"/>
<path d="M0 0 C0.67578125 1.7578125 0.67578125 1.7578125 1 4 C-0.14453125 5.9296875 -0.14453125 5.9296875 -1.8125 7.875 C-4.47734662 11.16000678 -5.71683947 13.9531091 -7 18 C-7.99 18.33 -8.98 18.66 -10 19 C-9.54367549 13.54069953 -7.59158996 10.39485532 -4.4375 6.125 C-4.01275391 5.53203125 -3.58800781 4.9390625 -3.15039062 4.328125 C-2.10989834 2.87845035 -1.0562628 1.43822449 0 0 Z " fill="#191818" transform="translate(227,650)"/>
<path d="M0 0 C1.32 0.66 2.64 1.32 4 2 C1.40282608 5.17432368 -1.0270515 6.09388894 -5 7 C-9.00614856 7.15860869 -12.99314304 7.11670457 -17 7 C-17 6.67 -17 6.34 -17 6 C-10.07 5.01 -10.07 5.01 -3 4 C-5.64 3.67 -8.28 3.34 -11 3 C-11 2.67 -11 2.34 -11 2 C-9.93458984 1.90912109 -9.93458984 1.90912109 -8.84765625 1.81640625 C-7.46900391 1.69072266 -7.46900391 1.69072266 -6.0625 1.5625 C-5.14597656 1.48128906 -4.22945313 1.40007813 -3.28515625 1.31640625 C-1.03840268 1.23955024 -1.03840268 1.23955024 0 0 Z " fill="#3C3B3A" transform="translate(359,647)"/>
<path d="M0 0 C2.64956093 1.28445456 5.29453793 2.57709679 7.9375 3.875 C8.69224609 4.23980469 9.44699219 4.60460937 10.22460938 4.98046875 C11.30258789 5.51220703 11.30258789 5.51220703 12.40234375 6.0546875 C13.06741943 6.37937012 13.73249512 6.70405273 14.41772461 7.03857422 C16 8 16 8 17 10 C16.236875 9.690625 15.47375 9.38125 14.6875 9.0625 C12.81210323 8.32106407 10.91315348 7.63771783 9 7 C8.34 8.32 7.68 9.64 7 11 C5.35 10.67 3.7 10.34 2 10 C2.99 9.34 3.98 8.68 5 8 C5.72382467 5.94074861 5.72382467 5.94074861 6 4 C4.02 3.34 2.04 2.68 0 2 C0 1.34 0 0.68 0 0 Z " fill="#302F2F" transform="translate(257,570)"/>
<path d="M0 0 C1.58246707 -0.08153933 3.16616273 -0.13943557 4.75 -0.1875 C6.07257813 -0.23970703 6.07257813 -0.23970703 7.421875 -0.29296875 C10 0 10 0 14 3 C3.605 3.495 3.605 3.495 -7 4 C-4 2 -4 2 0 2 C0 1.34 0 0.68 0 0 Z " fill="#1A1A19" transform="translate(458,555)"/>
<path d="M0 0 C-0.75 1.9375 -0.75 1.9375 -2 4 C-4.125 4.75 -4.125 4.75 -6 5 C-6 5.66 -6 6.32 -6 7 C-7.75 8.6875 -7.75 8.6875 -10 10 C-12.25 9.6875 -12.25 9.6875 -14 9 C-13.360625 8.773125 -12.72125 8.54625 -12.0625 8.3125 C-9.72806339 7.14749104 -9.72806339 7.14749104 -9.25 4.375 C-9.1675 3.59125 -9.085 2.8075 -9 2 C-8.01 2.33 -7.02 2.66 -6 3 C-1.69565217 0 -1.69565217 0 0 0 Z " fill="#22211E" transform="translate(310,580)"/>
<path d="M0 0 C0.33 0.99 0.66 1.98 1 3 C-0.95238853 5.00612399 -2.91137822 7.00492433 -4.875 9 C-5.43058594 9.57234375 -5.98617187 10.1446875 -6.55859375 10.734375 C-8.00134404 12.19450782 -9.4974374 13.60149298 -11 15 C-11.66 15 -12.32 15 -13 15 C-11.80305384 10.0625971 -8.72863565 7.75150833 -4.97265625 4.6484375 C-3.21084313 3.17618971 -1.59447784 1.64945984 0 0 Z " fill="#201E1F" transform="translate(245,631)"/>
<path d="M0 0 C0.33 0.66 0.66 1.32 1 2 C1.66 2 2.32 2 3 2 C3.33 7.61 3.66 13.22 4 19 C0.42795894 15.42795894 0.15277779 9.70703146 -0.125 4.78515625 C-0.125 3.18956004 -0.06930827 1.59409022 0 0 Z " fill="#1B1A1A" transform="translate(329,614)"/>
<path d="M0 0 C0.99 0 1.98 0 3 0 C3.05402274 2.10388569 3.09280256 4.20816714 3.125 6.3125 C3.14820313 7.48425781 3.17140625 8.65601563 3.1953125 9.86328125 C2.94574001 13.87141547 1.20018138 15.69972794 -1 19 C-0.9278125 17.96359375 -0.855625 16.9271875 -0.78125 15.859375 C-0.68742899 14.4895882 -0.59368292 13.11979626 -0.5 11.75 C-0.45230469 11.06808594 -0.40460938 10.38617187 -0.35546875 9.68359375 C-0.13521281 6.44268497 0 3.2506634 0 0 Z " fill="#1A1614" transform="translate(287,597)"/>
<path d="M0 0 C4.47925169 1.40776482 7.0905712 3.3042391 10 7 C10.96482203 9.96409243 11.55020909 12.91859658 12 16 C9.56432361 13.7937225 8.85775298 12.64747479 7.5625 9.4375 C5.88782217 5.75320877 5.48404003 5.46104905 2 4 C0.75 1.875 0.75 1.875 0 0 Z " fill="#161515" transform="translate(470,570)"/>
<path d="M0 0 C0.99 0 1.98 0 3 0 C4 3 4 3 4 6 C2 8 2 8 -0.625 8.125 C-1.40875 8.08375 -2.1925 8.0425 -3 8 C-3 3.78825048 -2.80255323 2.9063515 0 0 Z " fill="#292728" transform="translate(219,508)"/>
<path d="M0 0 C0.33 0 0.66 0 1 0 C0.88487847 1.72985242 0.75744323 3.45888751 0.625 5.1875 C0.52058594 6.63189453 0.52058594 6.63189453 0.4140625 8.10546875 C-0.00215853 11.01508938 -0.79874096 13.32890774 -2 16 C-2.33 16 -2.66 16 -3 16 C-3.37952295 9.80112515 -2.8352113 5.5522888 0 0 Z " fill="#131311" transform="translate(436,581)"/>
<path d="M0 0 C5.75 1.75 5.75 1.75 8 4 C6.71937515 5.7074998 5.38232443 7.37373596 4 9 C3.34 9 2.68 9 2 9 C2 8.01 2 7.02 2 6 C1.34 6 0.68 6 0 6 C0.185625 5.38125 0.37125 4.7625 0.5625 4.125 C1.23686176 1.95839822 1.23686176 1.95839822 0 0 Z " fill="#2C2A29" transform="translate(247,566)"/>
<path d="M0 0 C5.61901844 2.10713192 11.00614479 4.67076319 16 8 C14.3125 8.6875 14.3125 8.6875 12 9 C9.5625 7.6875 9.5625 7.6875 7 6 C6.113125 5.690625 5.22625 5.38125 4.3125 5.0625 C2 4 2 4 0.6875 1.875 C0.460625 1.25625 0.23375 0.6375 0 0 Z " fill="#1D1B1B" transform="translate(209,555)"/>
<path d="M0 0 C0.12375 0.53625 0.2475 1.0725 0.375 1.625 C1.73767964 7.7520926 1.73767964 7.7520926 6 12 C4.25 12.75 4.25 12.75 2 13 C-0.25 11.375 -0.25 11.375 -2 9 C-2.54282688 5.38115411 -1.84753138 3.11770921 0 0 Z " fill="#1A1A16" transform="translate(214,663)"/>
<path d="M0 0 C0 0.66 0 1.32 0 2 C-2.90548882 4.04169485 -4.40142046 5 -8 5 C-8.66 6.65 -9.32 8.3 -10 10 C-10.66 9.67 -11.32 9.34 -12 9 C-9.94195865 3.44328837 -5.88351438 0 0 0 Z " fill="#161614" transform="translate(450,570)"/>
<path d="M0 0 C0.66 0.66 1.32 1.32 2 2 C-0.57784846 4.64752004 -2.91648098 6.94432065 -6 9 C-6.99 8.67 -7.98 8.34 -9 8 C-2 1 -2 1 0 0 Z " fill="#21201F" transform="translate(320,570)"/>
<path d="M0 0 C0.99 0.33 1.98 0.66 3 1 C0.20283196 4.29078593 -3.19528578 6.06305458 -7 8 C-7.66 7.67 -8.32 7.34 -9 7 C-9 6.34 -9 5.68 -9 5 C-6.69 4.34 -4.38 3.68 -2 3 C-2 2.34 -2 1.68 -2 1 C-1.34 0.67 -0.68 0.34 0 0 Z " fill="#222120" transform="translate(243,660)"/>
<path d="M0 0 C4.10958767 1.45044271 7.43258745 3.51110752 11 6 C10.67 6.66 10.34 7.32 10 8 C6.7 6.35 3.4 4.7 0 3 C0 2.01 0 1.02 0 0 Z " fill="#181515" transform="translate(266,581)"/>
<path d="M0 0 C1.21386936 3.64160808 0.6674695 4.33165469 -0.9375 7.6875 C-1.31777344 8.49574219 -1.69804687 9.30398438 -2.08984375 10.13671875 C-2.39019531 10.75160156 -2.69054687 11.36648438 -3 12 C-3.66 12 -4.32 12 -5 12 C-4.52389341 7.00088076 -2.96837781 4.02167317 0 0 Z " fill="#191A18" transform="translate(338,582)"/>
<path d="M0 0 C1.65 0.33 3.3 0.66 5 1 C5.33 1.99 5.66 2.98 6 4 C5.67 4.66 5.34 5.32 5 6 C3.68 6 2.36 6 1 6 C1 5.01 1 4.02 1 3 C0.34 2.67 -0.32 2.34 -1 2 C-0.67 1.34 -0.34 0.68 0 0 Z " fill="#232121" transform="translate(323,563)"/>
<path d="M0 0 C0.99 0.33 1.98 0.66 3 1 C2.67 2.65 2.34 4.3 2 6 C0.68 6.33 -0.64 6.66 -2 7 C-1.67 5.68 -1.34 4.36 -1 3 C-2.32 3.33 -3.64 3.66 -5 4 C-3.36587557 2.29159719 -2.13093906 1.06546953 0 0 Z " fill="#302E2D" transform="translate(265,475)"/>
<path d="M0 0 C0.66 0.99 1.32 1.98 2 3 C1.125 5.6875 1.125 5.6875 0 8 C-0.66 8 -1.32 8 -2 8 C-2 10.64 -2 13.28 -2 16 C-2.33 16 -2.66 16 -3 16 C-3.37952295 9.80112515 -2.8352113 5.5522888 0 0 Z " fill="#1C1A19" transform="translate(209,529)"/>
<path d="M0 0 C0.99 0.33 1.98 0.66 3 1 C2.26708288 2.1774734 1.51296199 3.34176854 0.75 4.5 C0.33234375 5.1496875 -0.0853125 5.799375 -0.515625 6.46875 C-1.00546875 6.9740625 -1.4953125 7.479375 -2 8 C-3.32 8 -4.64 8 -6 8 C-5.67 7.01 -5.34 6.02 -5 5 C-2.9375 4.3125 -2.9375 4.3125 -1 4 C-0.67 2.68 -0.34 1.36 0 0 Z " fill="#1D1B1B" transform="translate(266,611)"/>
<path d="M0 0 C3 3 3 3 3.1875 6.1875 C3.125625 7.115625 3.06375 8.04375 3 9 C1.68 9.33 0.36 9.66 -1 10 C-0.67 6.7 -0.34 3.4 0 0 Z " fill="#32302F" transform="translate(383,602)"/>
<path d="M0 0 C0.99 0.33 1.98 0.66 3 1 C2.01 1.66 1.02 2.32 0 3 C-0.73343428 6.06556598 -0.73343428 6.06556598 -1 9 C-1.99 8.67 -2.98 8.34 -4 8 C-4 7.34 -4 6.68 -4 6 C-4.66 5.67 -5.32 5.34 -6 5 C-1.60546875 0.99609375 -1.60546875 0.99609375 0 0 Z " fill="#2E2D2C" transform="translate(311,571)"/>
<path d="M0 0 C0.66 1.32 1.32 2.64 2 4 C1.01 5.32 0.02 6.64 -1 8 C-1.99 7.67 -2.98 7.34 -4 7 C-3.67 5.35 -3.34 3.7 -3 2 C-2.34 2 -1.68 2 -1 2 C-0.67 1.34 -0.34 0.68 0 0 Z " fill="#292724" transform="translate(376,631)"/>
<path d="M0 0 C1.32 0.66 2.64 1.32 4 2 C1.75 4.0625 1.75 4.0625 -1 6 C-3.3125 5.75 -3.3125 5.75 -5 5 C-3.33333333 3.33333333 -1.66666667 1.66666667 0 0 Z " fill="#232220" transform="translate(349,569)"/>
<path d="M0 0 C3 1 3 1 4.6875 4.0625 C5.120625 5.031875 5.55375 6.00125 6 7 C5.34 7.66 4.68 8.32 4 9 C0 2.25 0 2.25 0 0 Z " fill="#1A1A19" transform="translate(333,634)"/>
<path d="M0 0 C5.875 4.625 5.875 4.625 7 8 C3.76912579 7.44295272 1.97638863 6.66812465 0 4 C0 2.68 0 1.36 0 0 Z " fill="#151513" transform="translate(320,638)"/>
<path d="M0 0 C1.32 0.66 2.64 1.32 4 2 C3 3 3 3 -0.16015625 3.09765625 C-2.09181641 3.08025391 -2.09181641 3.08025391 -4.0625 3.0625 C-5.35285156 3.05347656 -6.64320313 3.04445313 -7.97265625 3.03515625 C-8.97167969 3.02355469 -9.97070312 3.01195312 -11 3 C-11 2.67 -11 2.34 -11 2 C-10.28972656 1.93941406 -9.57945312 1.87882813 -8.84765625 1.81640625 C-7.46900391 1.69072266 -7.46900391 1.69072266 -6.0625 1.5625 C-5.14597656 1.48128906 -4.22945313 1.40007813 -3.28515625 1.31640625 C-1.03840268 1.23955024 -1.03840268 1.23955024 0 0 Z " fill="#373533" transform="translate(359,647)"/>
<path d="M0 0 C-0.33 0.99 -0.66 1.98 -1 3 C-4.375 3.625 -4.375 3.625 -8 4 C-8.66 3.34 -9.32 2.68 -10 2 C-3.375 0 -3.375 0 0 0 Z " fill="#1C1B1A" transform="translate(235,672)"/>
<path d="M0 0 C1.32 0.66 2.64 1.32 4 2 C3.34 3.32 2.68 4.64 2 6 C1.01 6 0.02 6 -1 6 C-0.67 4.02 -0.34 2.04 0 0 Z " fill="#2B2928" transform="translate(280,585)"/>
<path d="M0 0 C2.31 0.66 4.62 1.32 7 2 C6.67 2.99 6.34 3.98 6 5 C4.02 4.34 2.04 3.68 0 3 C0 2.01 0 1.02 0 0 Z " fill="#1F1E1D" transform="translate(474,556)"/>
<path d="M0 0 C0.33 0 0.66 0 1 0 C1.12375 1.216875 1.2475 2.43375 1.375 3.6875 C1.78891306 7.06479059 2.54573451 9.89756695 4 13 C2.68 12.34 1.36 11.68 0 11 C0 7.37 0 3.74 0 0 Z " fill="#2B2B2A" transform="translate(207,537)"/>
<path d="M0 0 C0.66 1.32 1.32 2.64 2 4 C0.625 6 0.625 6 -1 8 C-1.66 8 -2.32 8 -3 8 C-2.37240135 5.07120629 -1.41377341 2.63904371 0 0 Z " fill="#1D1A18" transform="translate(283,622)"/>
<path d="M0 0 C-0.625 1.9375 -0.625 1.9375 -2 4 C-5.125 4.75 -5.125 4.75 -8 5 C-3.22727273 0 -3.22727273 0 0 0 Z " fill="#1C1B1A" transform="translate(260,485)"/>
<path d="M0 0 C0.99 0 1.98 0 3 0 C2.34 1.98 1.68 3.96 1 6 C0.01 6 -0.98 6 -2 6 C-1.34 4.02 -0.68 2.04 0 0 Z " fill="#1E1C1C" transform="translate(277,621)"/>
<path d="M0 0 C0.6875 1.8125 0.6875 1.8125 1 4 C-0.4375 5.75 -0.4375 5.75 -2 7 C-2.66 6.67 -3.32 6.34 -4 6 C-4 5.34 -4 4.68 -4 4 C-3.34 4 -2.68 4 -2 4 C-1.34 2.68 -0.68 1.36 0 0 Z " fill="#1B1919" transform="translate(215,520)"/>
<path d="M0 0 C0.99 0.33 1.98 0.66 3 1 C3 1.99 3 2.98 3 4 C1.35 4.66 -0.3 5.32 -2 6 C-2 5.01 -2 4.02 -2 3 C-1.34 3 -0.68 3 0 3 C0 2.01 0 1.02 0 0 Z " fill="#1E1817" transform="translate(247,490)"/>
<path d="M0 0 C0.33 0 0.66 0 1 0 C1 2.31 1 4.62 1 7 C1.66 7.33 2.32 7.66 3 8 C2.01 8.33 1.02 8.66 0 9 C-0.66 8.34 -1.32 7.68 -2 7 C-1.67 6.01 -1.34 5.02 -1 4 C-0.65772583 2.66893378 -0.32248257 1.33599921 0 0 Z " fill="#1B1A1A" transform="translate(312,476)"/>
</svg>
